<?xml version="1.0" encoding="utf-8"?>
<!-- Generator: Adobe Illustrator 21.0.2, SVG Export Plug-In . SVG Version: 6.00 Build 0)  -->
<svg version="1.1" id="Layer_1" xmlns="http://www.w3.org/2000/svg" xmlns:xlink="http://www.w3.org/1999/xlink" x="0px" y="0px"
	 viewBox="0 0 60 60" style="enable-background:new 0 0 60 60;" xml:space="preserve">
<style type="text/css">
	.st0{fill:#8FA0AC;}
</style>
<g>
	<path class="st0" d="M53.6,54.8c-3.4,1.4-7.1,1.9-10.7,2.2c-3.7,0.2-7.3,0.1-10.9-0.4s-7.2-1.3-10.7-2.6c-3.4-1.3-6.8-3-9.7-5.3
		s-5.3-5.3-6.8-8.8s-2-7.3-1.7-11s1-7.3,2.3-10.8s3.4-6.8,6.2-9.3c2.8-2.6,6.3-4.2,10-5.1s7.5-0.9,11.1-0.6c0.9,0.1,1.8,0.2,2.8,0.4
		c0.9,0.1,1.9,0.4,2.8,0.7c1.8,0.6,3.5,1.5,5.1,2.6c3.1,2.2,5.6,5.1,7.5,8.4s3.1,6.9,3.5,10.7s-0.3,7.7-1.8,11.2
		c-1.6,3.5-4,6.5-6.9,8.9c-2.9,2.4-6.1,4.2-9.5,5.6c-0.3,0.1-0.5,0-0.7-0.3c-0.1-0.2,0-0.5,0.2-0.6c3.2-1.7,6.2-3.7,8.8-6
		c2.6-2.4,4.8-5.2,6.1-8.4c1.4-3.2,2-6.7,1.7-10.1c-0.3-3.5-1.4-6.9-3.1-9.9c-1.7-3-4.1-5.7-6.9-7.8c-1.4-1-2.9-1.8-4.6-2.4
		c-0.8-0.3-1.6-0.5-2.5-0.6c-0.9-0.2-1.8-0.3-2.6-0.4c-3.5-0.4-7.1-0.3-10.5,0.4c-3.4,0.8-6.7,2.3-9.3,4.6s-4.6,5.3-5.9,8.6
		s-2,6.8-2.4,10.4C4.3,32.4,4.7,36,6.1,39.3c1.3,3.3,3.6,6.1,6.3,8.4s5.9,4,9.3,5.3s6.9,2.2,10.4,2.7c3.6,0.5,7.2,0.8,10.8,0.6
		s7.2-0.6,10.6-2l0,0c0.1,0,0.2,0,0.3,0.1C53.8,54.6,53.7,54.7,53.6,54.8z"/>
</g>
</svg>
