<?xml version="1.0" encoding="utf-8"?>
<!-- Generator: Adobe Illustrator 21.0.2, SVG Export Plug-In . SVG Version: 6.00 Build 0)  -->
<svg version="1.1" id="Layer_1" xmlns="http://www.w3.org/2000/svg" xmlns:xlink="http://www.w3.org/1999/xlink" x="0px" y="0px"
	 viewBox="0 0 130.1 37.4" style="enable-background:new 0 0 130.1 37.4;" xml:space="preserve">
<style type="text/css">
	.st0{fill:#FF5948;}
</style>
<g>
	<path class="st0" d="M0,15c5.7,0.2,11.5-0.3,17.1-1.5c2.8-0.6,5.6-1.4,8.3-2.3c2.8-0.9,5.5-1.9,8.3-2.7c2.8-0.8,5.7-1.4,8.6-1.5
		c3-0.2,5.8,1.1,8.2,2.8c2.4,1.7,4.5,3.6,6.6,5.7c2.1,2,4.1,4.1,6.2,6.1c2.1,2,4.3,3.9,6.7,5.4c2.4,1.5,5.3,2.6,8.2,2.4
		c2.9-0.1,5.8-0.7,8.5-1.8c2.7-1.1,5.2-2.5,7.9-3.6c5.3-2.3,11.1-3.6,16.8-4.3c5.8-0.7,11.6-0.9,17.4-0.9c-5.8,0-11.6,0.2-17.4,1
		c-5.7,0.7-11.5,2-16.8,4.3c-2.7,1.1-5.2,2.5-7.9,3.6c-2.7,1.1-5.6,1.7-8.5,1.8c-2.9,0.2-5.8-0.8-8.3-2.4c-2.5-1.5-4.7-3.5-6.8-5.4
		c-2.1-2-4.1-4.1-6.2-6.1c-2.1-2-4.2-4-6.6-5.6c-2.4-1.6-5.1-2.9-8-2.6c-2.9,0.1-5.7,0.8-8.4,1.7c-2.7,0.9-5.4,1.9-8.2,2.9
		c-2.7,1-5.5,1.8-8.4,2.5C11.7,16.1,5.9,16.7,0,17V15z"/>
</g>
</svg>
