<?xml version="1.0" encoding="utf-8"?>
<!-- Generator: Adobe Illustrator 21.0.2, SVG Export Plug-In . SVG Version: 6.00 Build 0)  -->
<svg version="1.1" id="Layer_1" xmlns="http://www.w3.org/2000/svg" xmlns:xlink="http://www.w3.org/1999/xlink" x="0px" y="0px"
	 viewBox="0 0 130.1 37.4" style="enable-background:new 0 0 130.1 37.4;" xml:space="preserve">
<style type="text/css">
	.st0{fill:#FF5948;}
</style>
<g>
	<path class="st0" d="M-0.2,15.1c9.3,0.1,18.5,1.2,27.5,2.8c4.5,0.8,9,1.7,13.5,2.4c2.3,0.3,4.5,0.6,6.8,0.7c2.3,0.2,4.5,0,6.6-0.7
		c2.1-0.6,4.1-1.7,5.6-3.3c1.5-1.6,2.4-3.7,2.6-5.8C62.7,9,62.3,6.8,61,5c-1.2-1.8-3.2-3-5.3-3.5c-1.1-0.3-2.2-0.3-3.3-0.3
		c-1.1,0-2.2,0.1-3.3,0.3c-2.2,0.4-4.3,1.2-6.1,2.6c-3.7,2.6-5.9,6.9-6.7,11.3c-0.2,1.1-0.3,2.2-0.4,3.4c-0.1,1.1,0,2.2,0.2,3.3
		c0.4,2.2,1.5,4.2,3,6c2.9,3.5,7,5.9,11.3,7.3c2.2,0.7,4.4,1.1,6.7,1.1c2.3,0,4.6,0,6.9-0.2c4.6-0.4,9.1-1.1,13.6-2.2
		c8.9-2.2,17.4-5.8,26-9.1c4.3-1.7,8.6-3.2,13.1-4.4c4.4-1.2,9-1.8,13.6-1.8c-4.6,0-9.2,0.7-13.6,1.9c-4.4,1.2-8.8,2.8-13,4.5
		c-8.5,3.4-17,7-25.9,9.2c-4.5,1.1-9,1.9-13.6,2.3c-1.1,0.1-2.3,0.1-3.4,0.2c-1.2,0-2.3,0.1-3.5,0c-2.3-0.1-4.6-0.4-6.8-1.1
		c-4.4-1.3-8.6-3.7-11.6-7.3c-1.5-1.8-2.6-3.9-3.1-6.2c-0.3-1.2-0.3-2.4-0.2-3.5c0-1.2,0.2-2.3,0.4-3.5c0.4-2.3,1.1-4.5,2.3-6.6
		c1.1-2.1,2.7-3.9,4.6-5.3c1.9-1.4,4.1-2.3,6.5-2.8c1.2-0.2,2.3-0.4,3.5-0.4c1.2,0,2.4,0,3.5,0.3c2.3,0.5,4.5,1.8,6,3.8
		c1.4,2,1.9,4.5,1.7,6.9c-0.2,2.4-1.2,4.8-2.9,6.5c-1.7,1.8-3.9,2.9-6.1,3.6c-2.3,0.7-4.7,0.9-7,0.7c-2.3-0.1-4.6-0.3-6.9-0.6
		c-4.6-0.6-9.1-1.4-13.6-2.2C18,17.9,8.9,17-0.2,17.1V15.1z"/>
</g>
</svg>
