<?xml version="1.0" encoding="utf-8"?>
<!-- Generator: Adobe Illustrator 21.0.2, SVG Export Plug-In . SVG Version: 6.00 Build 0)  -->
<svg version="1.1" id="Layer_1" xmlns="http://www.w3.org/2000/svg" xmlns:xlink="http://www.w3.org/1999/xlink" x="0px" y="0px"
	 viewBox="0 0 130.1 37.4" style="enable-background:new 0 0 130.1 37.4;" xml:space="preserve">
<style type="text/css">
	.st0{fill:#FF5948;}
</style>
<g>
	<path class="st0" d="M0,15c4.7,0.1,9.4,0.1,14.1-0.3c2.3-0.2,4.6-0.5,7-0.9c2.3-0.4,4.7-0.8,7.1-0.9c1.2-0.1,2.4-0.1,3.6-0.1
		c1.2,0,2.4,0,3.6,0.2c2.4,0.4,4.7,1.2,6.7,2.7c1,0.8,1.9,1.7,2.4,2.9c0.5,1.2,0.6,2.5,0.3,3.8c-0.3,1.2-0.9,2.3-1.5,3.4
		c-0.7,1-1.5,1.9-2.5,2.7c-1.9,1.5-4.3,2.4-6.8,2.5c-1.2,0-2.5-0.2-3.6-0.7c-1.1-0.5-2.1-1.4-2.8-2.3c-1.5-2-1.9-4.5-2-6.9
		c-0.1-1.2,0.1-2.4,0.5-3.6c0.4-1.2,1.1-2.2,1.8-3.1c1.6-1.8,3.7-3.1,5.9-4.1c2.2-1,4.5-1.7,6.8-2.1c4.6-1,9.4-1.3,14.1-0.7
		c4.7,0.6,9.3,2.2,13.4,4.6c2,1.2,4,2.6,5.8,4.1c0.9,0.8,1.8,1.6,2.6,2.4c0.4,0.4,0.9,0.9,1.1,1.4c0.3,0.6,0.4,1.2,0.3,1.8
		c-0.1,1.2-0.6,2.4-1.4,3.3c-0.7,1-1.6,1.8-2.7,2.3c-1,0.6-2.3,0.9-3.5,0.8C69,28,67.8,27.6,67,26.7c-0.8-0.9-1.1-2.2-1.1-3.4
		c0.1-1.2,0.5-2.4,1.1-3.4c1.3-2,3.3-3.5,5.5-4.4c2.2-0.9,4.7-1,7-1c2.4,0,4.7,0.1,7.1,0.2c4.7,0.3,9.4,0.8,14.1,1.3l14.1,1.6
		c4.7,0.5,9.4,1.1,14.1,1.2c-4.7-0.1-9.4-0.6-14.1-1.1l-14.1-1.6c-4.7-0.5-9.4-0.9-14.1-1.2c-2.4-0.1-4.7-0.2-7.1-0.2
		c-2.4-0.1-4.7,0.1-6.9,1c-2.2,0.8-4.2,2.3-5.4,4.3c-0.6,1-1,2.1-1.1,3.3c-0.1,1.1,0.2,2.3,1,3.2c0.8,0.9,1.9,1.3,3.1,1.4
		c1.2,0.1,2.3-0.2,3.3-0.8c1-0.6,1.9-1.4,2.6-2.3c0.7-0.9,1.2-2,1.3-3.1c0.1-1.1-0.5-2.2-1.4-3c-0.8-0.8-1.7-1.6-2.6-2.4
		c-1.8-1.5-3.7-2.9-5.8-4c-4.1-2.4-8.6-4-13.2-4.6c-4.7-0.5-9.4-0.2-14,0.8c-2.3,0.5-4.5,1.2-6.7,2.1c-2.1,1-4.1,2.2-5.7,4
		c-1.5,1.7-2.3,4-2.1,6.3c0.1,2.3,0.6,4.7,2,6.5c0.7,0.9,1.6,1.6,2.6,2.1c1,0.5,2.2,0.6,3.3,0.6c2.3-0.1,4.5-1,6.2-2.4
		c0.9-0.7,1.6-1.5,2.3-2.5c0.6-0.9,1.1-2,1.4-3c0.2-1.1,0.2-2.2-0.2-3.2c-0.4-1-1.2-1.8-2.1-2.5c-1.8-1.4-4-2.1-6.3-2.5
		c-1.1-0.2-2.3-0.2-3.4-0.1c-1.2,0-2.3,0.1-3.5,0.2c-2.3,0.2-4.6,0.6-6.9,1.1c-2.3,0.5-4.7,0.8-7.1,1.1C9.5,16.7,4.7,16.8,0,17V15z"
		/>
</g>
</svg>
