<?xml version="1.0" encoding="utf-8"?>
<!-- Generator: Adobe Illustrator 21.0.2, SVG Export Plug-In . SVG Version: 6.00 Build 0)  -->
<svg version="1.1" id="Layer_1" xmlns="http://www.w3.org/2000/svg" xmlns:xlink="http://www.w3.org/1999/xlink" x="0px" y="0px"
	 viewBox="0 0 130.1 37.4" style="enable-background:new 0 0 130.1 37.4;" xml:space="preserve">
<style type="text/css">
	.st0{fill:#FF5948;}
</style>
<g>
	<path class="st0" d="M0,15c8.8,0.1,17.6,0,26.3-0.3l13.2-0.5c2.2-0.1,4.4-0.1,6.6-0.1c2.2,0,4.4,0,6.6-0.1c4.4-0.1,8.9,0,13.2,1.4
		c2.1,0.7,4.3,1.9,5.5,4.1c0.6,1,0.9,2.2,0.9,3.4c0.1,1.2-0.1,2.3-0.5,3.4C71,28.4,69.1,30,67,30.8c-2.1,0.9-4.4,1.2-6.6,1.1
		c-2.2-0.1-4.5-0.5-6.6-1.2c-2.1-0.7-4.1-1.8-5.8-3.3c-1.7-1.5-3-3.4-3.5-5.7c-0.3-1.1-0.2-2.3-0.2-3.4c0.1-1.1,0.3-2.2,0.6-3.3
		c0.7-2.1,2-4.1,3.8-5.4c1.8-1.3,4-2.1,6.1-2.6c4.4-0.9,8.8-0.7,13.2-0.6c4.4,0.3,8.7,1.3,12.9,2.8c8.3,2.9,16,7.2,24.1,10.8
		c4,1.8,8.1,3.4,12.3,4.6c2.1,0.6,4.3,1.1,6.4,1.4c2.2,0.3,4.4,0.5,6.6,0.5c-2.2,0-4.4-0.2-6.6-0.5c-2.2-0.3-4.3-0.8-6.4-1.4
		c-4.2-1.2-8.3-2.8-12.4-4.6c-8.1-3.5-15.8-7.8-24.1-10.7C76.7,8.2,72.4,7.2,68,6.9c-4.4-0.1-8.8-0.3-13.1,0.7
		c-2.1,0.5-4.2,1.3-5.9,2.5c-1.7,1.3-3,3.1-3.6,5.2c-0.3,1-0.5,2.1-0.6,3.2c0,1.1-0.1,2.2,0.2,3.2c0.5,2.1,1.7,3.9,3.4,5.3
		c1.6,1.4,3.6,2.4,5.6,3.1c2.1,0.7,4.2,1,6.4,1.1c2.1,0,4.3-0.3,6.3-1.1c1.9-0.8,3.6-2.3,4.3-4.2c0.7-1.9,0.6-4.2-0.4-6
		c-1-1.8-2.9-2.9-4.9-3.6c-4.1-1.3-8.5-1.4-12.9-1.3l-6.6,0.1c-2.2,0-4.4,0.1-6.6,0.2L26.4,16C17.6,16.5,8.8,16.8,0,17V15z"/>
</g>
</svg>
