<?xml version="1.0" encoding="utf-8"?>
<!-- Generator: Adobe Illustrator 21.0.2, SVG Export Plug-In . SVG Version: 6.00 Build 0)  -->
<svg version="1.1" id="Layer_1" xmlns="http://www.w3.org/2000/svg" xmlns:xlink="http://www.w3.org/1999/xlink" x="0px" y="0px"
	 viewBox="0 0 60 60" style="enable-background:new 0 0 60 60;" xml:space="preserve">
<style type="text/css">
	.st0{fill:#8FA0AC;}
</style>
<path class="st0" d="M46.5,13.4h-33c-3.3,0-6,2.7-6,6v21.3c0,3.3,2.7,6,6,6h33.1c3.3,0,6-2.7,6-6V19.4
	C52.5,16.1,49.8,13.4,46.5,13.4z M13.5,15.9h33.1c0.5,0,0.9,0.1,1.3,0.3L32.6,30.6c-0.7,0.7-1.6,1-2.6,1s-1.9-0.4-2.6-1L12.1,16.1
	C12.5,16,13,15.9,13.5,15.9z M50,40.6c0,1.9-1.6,3.5-3.5,3.5h-33c-1.9,0-3.5-1.6-3.5-3.5V19.4c0-0.5,0.1-1.1,0.4-1.5l15.4,14.5
	c1.1,1.1,2.7,1.7,4.3,1.7c1.6,0,3.1-0.6,4.3-1.7l15.4-14.5c0.2,0.5,0.4,1,0.4,1.5L50,40.6L50,40.6z"/>
</svg>
