<?xml version="1.0" encoding="utf-8"?>
<!-- Generator: Adobe Illustrator 21.0.2, SVG Export Plug-In . SVG Version: 6.00 Build 0)  -->
<svg version="1.1" id="Layer_1" xmlns="http://www.w3.org/2000/svg" xmlns:xlink="http://www.w3.org/1999/xlink" x="0px" y="0px"
	 viewBox="0 0 60 60" style="enable-background:new 0 0 60 60;" xml:space="preserve">
<style type="text/css">
	.st0{fill:#8FA0AC;}
</style>
<g>
	<g>
		<path class="st0" d="M30,19.5c-5.8,0-10.5,4.7-10.5,10.5S24.2,40.5,30,40.5S40.5,35.8,40.5,30S35.8,19.5,30,19.5z M30,38
			c-4.4,0-8-3.6-8-8s3.6-8,8-8s8,3.6,8,8S34.4,38,30,38z"/>
		<circle class="st0" cx="40.9" cy="19.1" r="2.5"/>
	</g>
	<path class="st0" d="M30,9.5c-5.6,0-6.3,0-8.4,0.1c-2.2,0.1-3.7,0.4-5,0.9c-1.4,0.5-2.5,1.2-3.6,2.4s-1.8,2.3-2.4,3.6
		c-0.5,1.3-0.9,2.8-0.9,5c-0.1,2.2-0.1,2.9-0.1,8.5s0,6.3,0.1,8.4c0.1,2.2,0.4,3.7,0.9,5s1.2,2.5,2.4,3.6s2.3,1.8,3.6,2.4
		c1.3,0.5,2.8,0.9,5,0.9c2.2,0.1,2.9,0.1,8.4,0.1s6.3,0,8.4-0.1s3.7-0.4,5-0.9s2.5-1.2,3.6-2.4c1.1-1.1,1.8-2.3,2.4-3.6
		c0.5-1.3,0.9-2.8,0.9-5c0.1-2.2,0.1-2.9,0.1-8.4s0-6.3-0.1-8.4c-0.1-2.2-0.4-3.7-0.9-5S48.2,14.1,47,13s-2.3-1.8-3.6-2.4
		c-1.3-0.5-2.8-0.9-5-0.9C36.3,9.5,35.6,9.5,30,9.5L30,9.5z M30,48c-5.5,0-6.2,0-8.3-0.1c-2.2-0.1-3.4-0.5-4.2-0.8
		c-1.1-0.4-1.9-1-2.8-1.8c-0.8-0.8-1.4-1.7-1.8-2.8c-0.3-0.8-0.7-2-0.8-4.2C12,36.2,12,35.5,12,30c0-5.6,0-6.2,0.1-8.3
		c0.1-2.2,0.5-3.4,0.8-4.2c0.4-1.1,1-1.9,1.8-2.8c0.8-0.8,1.7-1.4,2.8-1.8c0.8-0.3,2-0.7,4.2-0.8C23.8,12,24.5,12,30,12
		c5.6,0,6.2,0,8.3,0.1c2.2,0.1,3.4,0.5,4.2,0.8c1.1,0.4,1.9,1,2.7,1.8s1.4,1.7,1.8,2.8c0.3,0.8,0.7,2,0.8,4.2C48,23.8,48,24.5,48,30
		s0,6.2-0.1,8.3c-0.1,2.2-0.5,3.4-0.8,4.2c-0.4,1.1-1,1.9-1.8,2.8c-0.8,0.8-1.7,1.4-2.8,1.8c-0.8,0.3-2,0.7-4.2,0.8
		C36.2,48,35.5,48,30,48z"/>
</g>
</svg>
