<?xml version="1.0" encoding="utf-8"?>
<!-- Generator: Adobe Illustrator 21.0.2, SVG Export Plug-In . SVG Version: 6.00 Build 0)  -->
<svg version="1.1" id="Layer_1" xmlns="http://www.w3.org/2000/svg" xmlns:xlink="http://www.w3.org/1999/xlink" x="0px" y="0px"
	 viewBox="0 0 300 300" style="enable-background:new 0 0 300 300;" xml:space="preserve">
<style type="text/css">
	.st0{fill:#FF5948;}
</style>
<g>
	<path class="st0" d="M80,140.6c-0.6,2.2-1.2,3.9-1.9,4.9c-0.6,1-1.5,1.7-2.5,2.1c-1,0.4-2.6,0.6-4.8,0.7l-0.5,1.8
		c5.8-0.2,14.4-0.3,25.8-0.3c9.6,0,16.4,0.1,20.5,0.3c0.7-4.4,1.5-8.2,2.4-11.4c0.8-2.9,1.4-5,2-6.5h-2.1c-1.5,4.2-3,7.4-4.5,9.6
		s-3.3,3.8-5.5,4.8c-2.2,1-5.2,1.5-8.9,1.5h-6.5c-1.5,0-2.7-0.1-3.6-0.2c-0.8-0.2-1.5-0.5-1.9-0.9c-0.4-0.4-0.6-1.1-0.6-2
		c0-1,0.3-2.5,0.8-4.3l5.8-21.5h5.8c2.3,0,3.9,0.5,4.8,1.5c0.9,1,1.4,2.4,1.4,4.3c0,1-0.1,2.2-0.3,3.5c-0.2,1.3-0.3,2.2-0.4,2.6h2.1
		c1.1-5.7,2.1-9.9,2.9-12.7c0.1-0.5,0.5-1.8,1-3.9c0.5-2.1,1.4-5,2.6-8.8h-2.1c-0.3,0.6-0.8,1.8-1.5,3.7c-0.7,1.9-1.8,3.7-3.3,5.5
		c-1.5,1.8-3.7,2.7-6.7,2.7h-5.9l5.6-21.1c0.6-2.2,1.2-3.9,1.9-4.9c0.6-1,1.5-1.7,2.6-2c1.1-0.3,2.7-0.5,4.8-0.5h6.5
		c2.3,0,4.1,0.2,5.4,0.7c1.3,0.5,2.2,1.2,2.8,2.1c0.6,1,0.8,2.3,0.8,4c0,1.6-0.3,4-0.8,7.2h2.1c0.2-1.4,0.6-3.2,1.3-5.5
		c0.7-2.7,1.8-6.3,3.4-10.6c-3.5,0.2-9.5,0.3-17.8,0.3c-11.4,0-20.1-0.1-25.9-0.3l-0.4,1.8c1.5,0.1,2.7,0.2,3.6,0.4
		c0.8,0.2,1.4,0.5,1.8,1s0.6,1.1,0.6,2c0,1-0.3,2.5-0.8,4.4L80,140.6z"/>
	<path class="st0" d="M129.7,138.8c-0.8,2.8-1.2,5-1.2,6.7c0,3.9,2.1,5.8,6.2,5.8c5,0,8.6-3.1,10.7-9.2l2.2-6.5h-1.7l-1.2,3.3
		c-1.2,3.3-2.3,5.7-3.3,7s-2.2,2.1-3.4,2.1c-1.4,0-2.1-0.8-2.1-2.4c0-0.8,0.2-1.8,0.6-3.1L155.1,79c-2.4,1.2-4.9,2.1-7.4,2.7
		c-2.5,0.6-5.4,0.9-8.5,1l-0.6,1.9c2.2,0,3.7,0.3,4.7,0.8c0.9,0.5,1.4,1.4,1.4,2.6c0,0.6-0.1,1.4-0.4,2.5L129.7,138.8z"/>
	<path class="st0" d="M176.2,92.6c1-0.6,1.9-1.5,2.5-2.5c0.6-1,0.9-2.1,0.9-3.3c0-1.3-0.4-2.5-1.3-3.3c-0.8-0.9-1.9-1.3-3.3-1.3
		c-1.1,0-2.2,0.3-3.2,1c-1,0.6-1.9,1.5-2.5,2.6c-0.6,1.1-1,2.2-1,3.3c0,1.3,0.4,2.4,1.3,3.3c0.8,0.9,1.9,1.3,3.2,1.3
		C174,93.6,175.1,93.3,176.2,92.6z"/>
	<path class="st0" d="M160.8,151.3c2.3,0,4.4-0.7,6.3-2.2s3.5-3.8,4.7-7l2.3-6.5h-1.7l-1.2,3.3c-1.3,3.4-2.5,5.7-3.5,7.1
		c-1.1,1.4-2.2,2-3.4,2c-1.4,0-2.1-0.8-2.1-2.3c0-0.9,0.2-2,0.7-3.3l9.6-27.1c1-2.9,1.5-5.1,1.5-6.9c0-3.7-2-5.6-5.9-5.6
		c-2.2,0-4.3,0.7-6.3,2.1s-3.6,3.8-4.8,7.2l-2.3,6.5h1.7l1.3-3.3c1.2-3.2,2.3-5.5,3.4-7c1.1-1.4,2.3-2.2,3.7-2.2
		c1.3,0,1.9,0.8,1.9,2.3c0,0.9-0.2,2-0.7,3.3l-9.6,27.1c-1,2.9-1.6,5.2-1.6,7.1C154.6,149.5,156.7,151.3,160.8,151.3z"/>
	<path class="st0" d="M152.5,181.6c2-2.6,3-5.4,3-8.5c0-3.7-1.6-6.6-4.8-8.7s-8.2-3.1-14.9-3.1c-1.8,0-3.9,0-6.4,0.1
		c-2.4,0.1-4.7,0.1-6.7,0.1c-5.9,0-10.4-0.1-13.6-0.3l-0.4,1.8c2.3,0.1,3.8,0.3,4.7,0.9c0.9,0.5,1.3,1.4,1.3,2.5
		c0,0.8-0.3,2.2-0.8,4.3L102.2,215c-0.6,2.2-1.2,3.9-1.8,4.9c-0.6,1-1.5,1.7-2.6,2.1c-1.1,0.4-2.7,0.6-4.8,0.7l-0.3,1.8
		c3.2-0.2,7.8-0.3,13.8-0.3c2.9,0,5.9,0,9.2,0.1c3.3,0.1,5.4,0.1,6.5,0.1c5.7,0,10.8-0.7,15.2-2.2s7.9-3.7,10.4-6.6
		c2.5-2.9,3.8-6.4,3.8-10.5c0-2.5-0.8-4.8-2.3-6.8c-1.5-2-3.8-3.7-6.8-4.9c-3-1.3-6.7-2-11-2.2c4.7-0.5,8.9-1.5,12.6-3.2
		C147.6,186.3,150.5,184.2,152.5,181.6z M134.2,195.4c1.6,2,2.4,4.7,2.4,8.2c0,3.5-0.6,6.7-1.9,9.5c-1.3,2.9-3.2,5.1-5.7,6.8
		c-2.5,1.7-5.5,2.5-9,2.5c-1.6,0-2.7-0.3-3.3-0.9c-0.7-0.6-1-1.4-1-2.5c0-0.8,0.2-2.2,0.7-4.1l6-22.6h3.9
		C129.9,192.4,132.6,193.4,134.2,195.4z M139.6,181.1c-1.2,2.9-3,5.3-5.4,7.1c-2.3,1.8-5.1,2.7-8.3,2.7h-3.1l5.7-21.6
		c0.5-1.7,0.9-3.1,1.4-3.9c0.5-0.9,1.1-1.5,1.8-1.9s1.7-0.5,2.9-0.5c2.5,0,4.3,0.7,5.3,2.2c1,1.5,1.6,3.6,1.6,6.5
		C141.4,175,140.8,178.1,139.6,181.1z"/>
	<path class="st0" d="M204.4,177.1c-3.9,0.8-8.2,1.2-13,1.3l-1.2,4.4c-0.2-1.9-0.8-3.4-1.8-4.3c-1-0.9-2.3-1.4-3.9-1.4
		c-4.2,0-8.4,2-12.8,6c-4.3,4-7.9,8.9-10.8,14.9s-4.3,11.5-4.3,16.8c0,3.5,0.8,6.2,2.5,8.1c1.7,1.9,4.2,2.9,7.5,2.9
		c6.2,0,11.2-4.2,15-12.7c-0.5,2.2-0.8,3.9-0.8,5.3c0,1.8,0.4,3.3,1.2,4.5c1.3,1.9,3.5,2.8,6.6,2.8c2.4,0,4.7-0.7,6.8-2.1
		c2.1-1.4,3.8-3.8,4.9-7.1l2.3-6.5h-1.7l-1.6,4.3c-1.6,4.7-3.4,7-5.5,7c-1.1,0-1.7-0.7-1.7-2c0-0.6,0.1-1.4,0.4-2.4L204.4,177.1z
		 M189.2,186.4l-3.9,13.9l0.4-2.2c-1.2,4.7-2.6,8.7-4.2,12.2s-3.2,6.1-4.8,7.9c-1.6,1.8-3,2.7-4.3,2.7c-0.9,0-1.5-0.4-1.9-1.3
		c-0.4-0.9-0.6-2.3-0.6-4.3c0-5.1,0.9-10.4,2.7-15.9c1.8-5.5,4-10,6.6-13.7c2.6-3.7,4.9-5.5,6.9-5.5c1,0,1.7,0.4,2.2,1.2
		s0.8,1.9,0.8,3.4C189.3,185.5,189.3,186,189.2,186.4z"/>
	<path class="st0" d="M233.4,187c0,1.7,0.5,3.2,1.4,4.3c0.9,1.1,2.1,1.7,3.6,1.7c1.2,0,2.2-0.3,3-1c0.8-0.7,1.4-1.5,1.9-2.5
		s0.6-2,0.6-3.1c0-3.4-1.3-5.8-3.9-7.2c-2.6-1.4-5.8-2.1-9.7-2.1c-3.4,0-6.3,0.6-8.7,1.7c-2.4,1.1-4.3,2.7-5.6,4.6
		c-1.3,2-1.9,4.2-1.9,6.8c0,1.6,0.3,3.2,0.9,4.9c0.6,1.6,1.4,3.4,2.6,5.1c1.2,1.8,1.9,2.9,2.1,3.2c1.7,2.6,2.9,4.9,3.8,6.9
		s1.2,4,1.2,5.9c0,2.4-0.7,4.3-2.1,5.6c-1.4,1.4-3.2,2.1-5.4,2.1c-1.4,0-2.6-0.2-3.4-0.7c0.1-0.2,0.2-0.6,0.5-1.3
		c0.3-0.7,0.6-1.6,0.9-2.6s0.4-2.2,0.4-3.4c0-2-0.5-3.7-1.4-5c-0.9-1.3-2.2-2-3.7-2c-1.6,0-2.8,0.6-3.7,1.9
		c-0.9,1.3-1.3,2.8-1.3,4.5c0,3.6,1.4,6.3,4.2,7.9c2,1.2,4.5,2,7.3,2.3l-5.3,8c0.8-0.4,1.7-0.6,2.7-0.6c0.8,0,1.4,0.2,1.8,0.5
		s0.7,0.9,0.7,1.5c0,1.5-0.8,2.6-2.3,3.2c-1.5,0.6-3.1,0.9-4.7,0.9c-0.8,0-1.6-0.1-2.4-0.2c-0.8-0.1-1.4-0.3-2-0.5s-0.9-0.3-1.1-0.3
		l-0.5,1.4c0.7,0.5,1.8,0.9,3.3,1.2c1.4,0.4,3,0.5,4.7,0.5c2.4,0,4.8-0.3,7-0.8c2.2-0.5,4.1-1.4,5.5-2.6s2.2-2.6,2.2-4.4
		c0-1.2-0.5-2.1-1.5-2.8c-1-0.7-2.3-1-3.9-1c-1.5,0-3.1,0.3-4.8,0.9l3.1-4.9c0.3,0,0.5,0,0.8,0c3.4,0,6.3-0.6,8.9-1.8
		c2.5-1.2,4.5-2.8,5.9-4.9s2.1-4.4,2.1-7c0-2-0.4-4.1-1.2-6.1c-0.8-2-2.2-4.6-4.1-7.7c-0.5-0.7-1.2-1.8-2.1-3.3s-1.7-2.8-2.3-4.2
		c-0.6-1.4-0.9-2.8-0.9-4.3c0-2.4,0.7-4.3,1.9-5.6c1.2-1.3,2.9-2,5.1-2c1.3,0,2.3,0.2,3.1,0.7c-0.8,0.9-1.4,2-2,3.3
		C233.6,184.1,233.4,185.5,233.4,187z"/>
	<path class="st0" d="M289,227.7c-10.2,13.6-20.9,27-33.7,38.1c-6.4,5.6-13.3,10.5-20.7,14.7c-7.4,4.2-15.2,7.5-23.3,10.2
		c-16.2,5.2-33.2,7.3-50.1,7.5c-16.9,0.5-34-2.1-49.8-8c-15.9-5.8-30.6-14.8-43.3-26c-12.7-11.2-23.4-24.6-32-39.2
		c-17-29.2-25.9-63.7-21.5-97.5c2-16.8,6.8-33.3,14.7-48.3C37.2,64.3,48.1,51,61,40c12.9-11,27.6-19.7,43.3-26.1
		C120,7.5,136.6,3.3,153.5,2.1c16.9-1,34,0.8,50,6.3c15.9,5.6,30.6,15.4,40.3,29.2c4.9,6.8,8.4,14.6,10.2,22.8
		c1.7,8.2,1.4,16.9-1.7,24.6c-3.1,7.7-9.4,14-17.2,16.8c-7.8,3.1-16.1,2.1-24.7,2.3h-10.6l0-0.1c0.3-1.3,0.9-3.4,1.6-6.4
		c0.8-3,1.6-5.8,2.5-8.3c0.9-2.5,1.9-4.4,3.1-5.5c1.7-1.5,3.4-2.3,5.2-2.3c1.1,0,2.1,0.2,2.9,0.7c0.8,0.4,1.2,0.9,1.2,1.5
		c-1.5,0.5-2.8,1.2-3.7,2.3c-0.9,1.1-1.4,2.3-1.4,3.7c0,1,0.3,1.7,0.9,2.2c0.6,0.5,1.5,0.8,2.7,0.8c1.1,0,2.1-0.3,3-0.9
		c0.9-0.6,1.6-1.4,2.2-2.3c0.5-0.9,0.8-1.9,0.8-2.9c0-1.9-0.7-3.4-2.2-4.6s-3.6-1.8-6.2-1.8c-2.1,0-4.2,0.4-6.2,1.2
		c-2,0.8-3.6,1.9-5,3.3c-1.9,1.9-3.6,4.4-5.1,7.5c-1.4,3.1-2.8,7-4.1,11.9l0,0.1h-8l-0.6,1.8h8.1l-16.3,60.9c2.2-0.8,4.9-1.2,8-1.3
		l16-59.7h10.5c4.3,0,8.8,0.1,13.1,0c4.3-0.1,8.7-0.9,12.8-2.4c4.1-1.5,7.9-3.9,11.1-6.9c3.2-3.1,5.6-6.8,7.2-10.9
		c3.3-8.1,3.5-17.2,1.8-25.7c-1.8-8.5-5.5-16.5-10.5-23.5c-10-14.2-25-24.2-41.2-29.8c-16.3-5.7-33.6-7.4-50.7-6.4
		c-17.1,1.2-33.9,5.5-49.8,11.9c-15.8,6.5-30.8,15.3-43.8,26.5c-13,11.1-24.1,24.6-32.1,39.8c-8.1,15.2-12.9,31.9-14.9,48.9
		c-0.9,8.5-1.3,17.1-0.9,25.6c0.5,8.6,1.7,17.1,3.6,25.4c3.9,16.7,10.3,32.7,19,47.5c8.6,14.8,19.5,28.3,32.3,39.6
		c12.8,11.3,27.7,20.5,43.8,26.3c16.1,5.9,33.4,8.6,50.5,8c17.1-0.3,34.2-2.6,50.5-7.9c8.1-2.7,16-6.2,23.4-10.4
		c7.4-4.3,14.4-9.3,20.8-15c12.9-11.3,23.3-25,33.3-38.7L289,227.7z"/>
</g>
</svg>
