<?xml version="1.0" encoding="utf-8"?>
<!-- Generator: Adobe Illustrator 21.0.2, SVG Export Plug-In . SVG Version: 6.00 Build 0)  -->
<svg version="1.1" id="Layer_1" xmlns="http://www.w3.org/2000/svg" xmlns:xlink="http://www.w3.org/1999/xlink" x="0px" y="0px"
	 viewBox="0 0 300 300" style="enable-background:new 0 0 300 300;" xml:space="preserve">
<style type="text/css">
	.st0{fill:#FF5948;}
</style>
<g>
	<path class="st0" d="M111.1,152.9c-3.8,3-8.1,5.7-12.5,7.9c-4.5,2.2-9.1,4.1-13.9,5.6c0,0,0,0,0,0c-0.7,0.2-1.2,1.1-0.9,1.8
		c0.2,0.7,1.1,1.2,1.8,0.9c9.7-3.2,19.4-6.4,28.7-11.4c4.6-2.6,9.8-4.8,13.9-9.3c2-2.2,3.7-4.8,4.9-7.8c1.2-3,1.7-6.4,1.5-9.7
		c-0.3-3.3-1.1-6.4-3-9.5c-1.8-3.1-4.9-5.4-8-6.7c-3.2-1.2-6.4-1.5-9.3-1.3c-3,0.2-5.7,0.8-8.3,1.8c-10.2,4-19.1,10.2-26.5,18.5
		c-3.7,4.2-6.8,8.6-9.4,13.3c-2.7,4.7-4.8,9.8-6.2,15.1c-1.4,5.3-2.2,10.9-2.1,16.7c0.2,5.7,1.1,11.8,4.4,17.6
		c1.6,2.8,3.9,5.6,6.8,7.5c2.9,2,6.3,3,9.4,3.2c6,0.5,11.8-1,16.7-3.3c9.8-4.6,17.6-11.3,25.6-17.5c0.6-0.5,0.7-1.3,0.3-1.9
		c-0.4-0.7-1.3-0.8-2-0.4l0,0c-4.2,2.8-8.4,5.6-12.7,8.1c-4.3,2.5-8.8,4.7-13.3,6c-4.5,1.4-9.1,1.8-13.1,0.6
		c-3.9-1.1-5.7-3.7-6.7-7.2c-1-3.5-1-7.8-0.5-12.1c0.4-4.4,1.3-8.8,2.3-13.3c1-4.5,2.3-9,3.6-13.6c1.4-4.5,2.9-9.2,4.8-13.5
		c1.9-4.3,4.7-8.3,8.1-11.6c3.4-3.3,7.7-5.8,12.2-6.7c2.3-0.5,4.5-0.6,6.6-0.4c2.1,0.2,4,1.1,5.3,2.3c1.3,1.1,2,2.5,2.5,3.9
		c0.4,1.4,0.8,3.4,0.8,5.1c0,3.4-1,6.9-3.2,10.6C117.6,145.6,114.9,149.9,111.1,152.9z"/>
	<path class="st0" d="M259.4,257.5c-14.7,9.9-30.3,18.5-46.7,25.1c-16.4,6.6-33.7,11.3-51.3,12.9c-17.6,1.7-35.5,0.2-52.5-4.6
		c-17-4.8-33-13-47.3-23.3c-7.1-5.2-14-10.8-20.1-17.2c-6.1-6.3-11.6-13.3-16.3-20.7c-9.5-14.8-15.9-31.6-19.3-48.9
		c-3.4-17.3-3.9-35.1-1.4-52.6c2.5-17.4,7.9-34.4,16.1-50c4.1-7.8,8.9-15.2,14.3-22.1c5.4-6.9,11.4-13.4,18.1-19
		C66.4,25.9,82.2,17.5,99,12.3c8.4-2.6,17-4.4,25.7-5.3c4.4-0.3,8.8-0.9,13.1-0.8c4.3,0.1,8.5,0.7,12.4,2.3
		c3.9,1.5,7.4,3.9,10.1,7.1c2.7,3.2,4.6,7,5.9,11.1c2.5,8.2,2.8,17,2.1,25.7c-0.7,8.7-2.5,17.2-4.7,25.8l-1.4,6
		c-5.4,0.9-10.7,2-16,3.2c-0.6,0.1-0.9,0.7-0.8,1.3c0.1,0.6,0.7,0.9,1.3,0.8c4.9-1.1,9.9-1.9,14.8-2.4l-4.1,17.1l-25,103.4l4.4,1
		L161,104.9l4.3-18.4c3.2-0.2,6.4-0.3,9.6-0.3l-28.1,117.6l0,0l-0.4,1.8c0,0.1-0.1,0.3-0.1,0.4c0,0.5,0.5,0.9,1.1,0.9l0,0
		c4-0.3,8-0.2,12-0.1l2.7,0.6l0.1-0.5c1.9,0.1,3.8,0.2,5.7,0.2c6.9,0.3,13.9,0.5,21.1,0.1c7.2-0.5,14.7-1.7,22-5.5
		c3.6-1.9,7.1-4.5,10.1-7.7c3-3.3,5.3-7.3,6.6-11.5c1.3-4.2,1.6-8.5,1.4-12.6c-0.3-4.2-1.5-8.7-3.8-12.6c-2.2-4-5.5-7.1-9-9.2
		c-3.5-2.2-7.1-3.5-10.7-4.5c-3.2-0.9-6.3-1.5-9.5-2c3.6-0.5,7.2-1.3,10.9-2.5c3.6-1.2,7.3-2.8,10.6-5.2c3.4-2.4,6.3-5.7,8.4-9.4
		c2.1-3.7,3.6-7.7,4.2-11.7c0.2-1,0.2-2,0.3-3c0-1.2,0.1-2.4-0.1-3.6c-0.2-2.4-0.8-4.9-1.9-7.1c-2.3-4.5-6.3-7.4-9.9-9.4
		c-3.6-2-7-3.8-10.5-4.9c-7.1-2.2-14.2-2.8-21.2-2.9c-7.1-0.1-14,0.5-20.9,1.5l1-4.4c2.2-8.6,4-17.5,4.7-26.4c0.6-9,0.4-18.2-2.4-27
		c-1.4-4.4-3.5-8.6-6.6-12.2c-3-3.6-7.1-6.4-11.4-8c-4.4-1.7-9-2.4-13.6-2.4c-4.6,0-9,0.5-13.5,0.9c-8.9,1-17.7,2.9-26.3,5.6
		c-17.1,5.4-33.2,14-46.8,25.7c-6.8,5.8-12.9,12.4-18.4,19.5c-5.5,7.1-10.3,14.6-14.4,22.6C10.2,93,4.8,110.3,2.4,128
		c-2.4,17.7-1.9,35.8,1.7,53.2c3.5,17.5,10.1,34.4,19.8,49.4c4.8,7.5,10.4,14.5,16.7,20.9c6.2,6.4,13.2,12,20.4,17.2
		c14.5,10.3,30.6,18.5,47.8,23.2c17.1,4.8,35.2,6.2,52.9,4.4c17.7-1.7,35-6.5,51.4-13.2c16.4-6.7,32-15.4,46.7-25.4
		c14.7-10,28.4-21.2,41.3-33.5C288,236.4,274.1,247.6,259.4,257.5z M209.9,155.3c1.7,2.3,2.5,4.8,2.8,7.2c0.3,2.4,0.1,4.8-0.2,7.4
		c-0.3,2.8-0.8,5.3-1.5,7.6c-0.7,2.3-1.6,4.5-2.8,6.6c-1.2,2.1-2.9,4.1-5,6c-4.2,3.7-9.8,7-15.9,9.4c-6.1,2.5-12.8,4.1-19.5,5
		c-1.7,0.2-3.4,0.4-5.1,0.5l15-62.6c1.6,0.1,3.3,0.1,4.9,0.1c0.6,0.1,1.3,0.2,1.9,0.3c3.3,0.6,6.6,1.3,9.8,2.3c3.2,1,6.2,2.3,9,3.9
		C205.9,150.9,208.3,152.9,209.9,155.3z M212.3,97.4c1.7,2.3,1.9,5,1.9,6.9c0,1,0.1,1.9,0,2.8l-0.1,1.5c-0.1,0.7-0.1,1.4-0.3,2
		c-0.4,2.7-0.6,5.3-1.4,7.8c-0.7,2.5-1.8,4.9-3.2,7.3c-1.5,2.4-3.4,4.7-5.8,6.7c-4.9,4-11.4,6-18,7.1c-2.4,0.4-4.9,0.6-7.3,0.8
		l12.6-52.6c5.1,0.9,10.1,2.3,14.5,4.5C207.9,93.6,210.6,95.1,212.3,97.4z"/>
</g>
</svg>
