<?xml version="1.0" encoding="utf-8"?>
<!-- Generator: Adobe Illustrator 21.0.2, SVG Export Plug-In . SVG Version: 6.00 Build 0)  -->
<svg version="1.1" id="Layer_1" xmlns="http://www.w3.org/2000/svg" xmlns:xlink="http://www.w3.org/1999/xlink" x="0px" y="0px"
	 viewBox="0 0 60 60" style="enable-background:new 0 0 60 60;" xml:space="preserve">
<style type="text/css">
	.st0{fill:#8FA0AC;}
</style>
<path class="st0" d="M50.4,11.9C47.1,8.7,37.7,7.5,30,7.5c-7.7,0-17.1,1.2-20.4,4.4c-1.4,1.4-2.1,3.1-2.1,5.1c0,6.8,5.3,6.9,7.6,7
	c0.1,0,0.2,0,0.3,0c2.1,0,4.2-0.5,4.9-1.3c0.8-0.8,1.2-1.5,1.6-2.3c0.9-1.8,1.7-3.3,8.1-3.3c6.4,0,7.2,1.5,8.1,3.3
	c0.4,0.8,0.8,1.6,1.6,2.3c0.8,0.8,3,1.4,5.3,1.3c2.3-0.1,7.6-0.2,7.6-7C52.5,15.1,51.7,13.3,50.4,11.9z M44.9,21.5
	c-2,0-3.3-0.5-3.5-0.6c-0.5-0.5-0.8-1.1-1.1-1.7c-1.4-2.6-3-4.7-10.3-4.7c-7.3,0-8.9,2-10.3,4.7c-0.3,0.6-0.6,1.2-1.1,1.7
	c-0.2,0.1-1.4,0.6-3.2,0.6c-0.1,0-0.2,0-0.2,0c-3-0.1-5.2-0.4-5.2-4.5c0-1.3,0.5-2.4,1.4-3.3C13.5,11.5,21.2,10,30,10
	c8.8,0,16.5,1.5,18.7,3.7c0.9,0.9,1.4,2.1,1.4,3.3C50,21.1,47.9,21.4,44.9,21.5z"/>
<path class="st0" d="M39,25.4c-0.8-0.8-2.2-1.4-3.3-1.4H24.3c-1.1,0-2.5,0.6-3.3,1.4l-7.4,7.4c-0.8,0.8-1.4,2.2-1.4,3.3v10.4
	c0,3.3,2.7,6,6,6h23.6c3.3,0,6-2.7,6-6V36.1c0-1.1-0.6-2.5-1.4-3.3L39,25.4z M45.3,46.5c0,1.9-1.6,3.5-3.5,3.5H18.2
	c-1.9,0-3.5-1.6-3.5-3.5V36.1c0-0.5,0.3-1.2,0.6-1.6l7.4-7.4c0.3-0.3,1.1-0.6,1.6-0.6h11.3c0.5,0,1.2,0.3,1.6,0.6l7.4,7.4
	c0.3,0.3,0.6,1.1,0.6,1.6C45.3,36.1,45.3,46.5,45.3,46.5z"/>
<path class="st0" d="M30,30.2c-4.5,0-8.1,3.6-8.1,8.1c0,4.5,3.6,8.1,8.1,8.1s8.1-3.6,8.1-8.1C38.1,33.8,34.5,30.2,30,30.2z M30,43.9
	c-3.1,0-5.6-2.5-5.6-5.6c0-3.1,2.5-5.6,5.6-5.6s5.6,2.5,5.6,5.6C35.6,41.4,33.1,43.9,30,43.9z"/>
</svg>
